# xmcd CD database file
#
# Track frame offsets:
#	225
#	11373
#	24176
#	36262
#	48070
#	58071
#	69589
#	85137
#	101025
#	114093
#	132300
#	142741
#	152397
#	170844
#	184506
#	200775
#	214857
#	225486
#	236465
#	249401
#	261055
#	273630
#
# Disc length: 3806 seconds
#
# Revision: 1
# Processed by: cddbd v1.5.2PL0 Copyright (c) Steve Scherf et al.
# Submitted via: CDex 1.51
#
DISCID=230edb16
DTITLE=Various Artist - Pisen tulaka
DYEAR=2000
DGENRE=Country
TTITLE0=Honza Vycital and Greenhorns - Kabalero
TTITLE1=Vaclav Marsalek and TO Praha - Je na zapad cesta dlouha
TTITLE2=Pacifik - Orinoko
TTITLE3=Duo Cervanek - Kacak
TTITLE4=Tramp Evergreen Band and Rowers and Karabina - Prsi, jejej, to prsi
TTITLE5=Duo EKG-M - Pravidelne v sobotu
TTITLE6=Tramp Evergreen Band and Rowers and Karabina - Pisen o nose
TTITLE7=Wabi and Miki Ryvolove a jejich kamaradi - Ze vsech chlapu nejstastnejsi chlap
TTITLE8=Wabi Danek - Velka rybi skola
TTITLE9=Udoli desu - Miriam
TTITLE10=Duo Cervanek - Ztraceny raj
TTITLE11=Tramp Ewergreen Band - Swing Dring
TTITLE12=Wabi and Miki Ryvolove a jejich kamaradi - Tereza
TTITLE13=Zlaty orel - General
TTITLE14=Hosi od Bobri reky - Indian
TTITLE15=Sestry Havelkovy - Niagara
TTITLE16=Grosaci - Usmej se, srdcova damo
TTITLE17=TO Rowers and TO Karabina - Az pujdes kolem hrbitova
TTITLE18=Honza Vycital - Pisen tulaka
TTITLE19=Tramp Ewergreen Band and Rowers and Karabina - Mexicka svatba
TTITLE20=Usvit - Treseme se v lese
TTITLE21=Wabi Ryvola a jeho kamaradky - Taborovy ohen
EXTD=YEAR: 2000
EXTT0=
EXTT1=
EXTT2=
EXTT3=
EXTT4=
EXTT5=
EXTT6=
EXTT7=
EXTT8=
EXTT9=
EXTT10=
EXTT11=
EXTT12=
EXTT13=
EXTT14=
EXTT15=
EXTT16=
EXTT17=
EXTT18=
EXTT19=
EXTT20=
EXTT21=
PLAYORDER=
